<svg width="250" height="80" viewBox="0 0 250 80" fill="none" xmlns="http://www.w3.org/2000/svg">
<g clip-path="url(#clip0_1_5)">
<g filter="url(#filter0_d_1_5)">
<path d="M88.75 34H85.5469C85.3802 34 85.2969 33.9271 85.2969 33.7812L85.2656 11.9844C85.2656 11.8177 85.349 11.7344 85.5156 11.7344H88.4062L93.8125 24.3438L93.6562 11.9844C93.6562 11.8177 93.75 11.7344 93.9375 11.7344H97.1094C97.2344 11.7344 97.2969 11.8177 97.2969 11.9844L97.3281 33.8125C97.3281 33.9375 97.276 34 97.1719 34H94.3594L88.8125 22.2188L89.0469 33.75C89.0469 33.9167 88.9479 34 88.75 34ZM118.258 34H107.914C107.831 34 107.789 33.9479 107.789 33.8438L107.821 11.8594C107.821 11.776 107.862 11.7344 107.946 11.7344H118.227C118.31 11.7344 118.352 11.7865 118.352 11.8906V15.4688C118.352 15.5521 118.31 15.5938 118.227 15.5938H111.664V20.5938H118.227C118.31 20.5938 118.352 20.6354 118.352 20.7188L118.383 24.3438C118.383 24.4271 118.341 24.4688 118.258 24.4688H111.664V30.0625H118.258C118.341 30.0625 118.383 30.1146 118.383 30.2188V33.875C118.383 33.9583 118.341 34 118.258 34ZM134.798 34.3125C133.673 34.3125 132.631 34.0208 131.673 33.4375C130.714 32.8542 129.949 32.0729 129.376 31.0938C128.813 30.1042 128.532 29.026 128.532 27.8594L128.594 11.8594C128.594 11.776 128.636 11.7344 128.719 11.7344H132.313C132.396 11.7344 132.438 11.776 132.438 11.8594V27.8594C132.438 28.5781 132.667 29.1927 133.126 29.7031C133.584 30.2031 134.141 30.4531 134.798 30.4531C135.485 30.4531 136.058 30.2031 136.516 29.7031C136.975 29.1927 137.204 28.5781 137.204 27.8594V11.8594C137.204 11.776 137.245 11.7344 137.329 11.7344H140.923C141.006 11.7344 141.048 11.776 141.048 11.8594L141.11 27.8594C141.11 29.0365 140.829 30.1198 140.266 31.1094C139.693 32.0885 138.933 32.8698 137.985 33.4531C137.037 34.026 135.975 34.3125 134.798 34.3125ZM155.056 34H151.431C151.347 34 151.306 33.9479 151.306 33.8438L151.368 11.8594C151.368 11.776 151.41 11.7344 151.493 11.7344H157.962C159.118 11.7344 160.181 12.0156 161.149 12.5781C162.118 13.1406 162.889 13.8958 163.462 14.8438C164.045 15.7917 164.337 16.8646 164.337 18.0625C164.337 18.8438 164.217 19.5521 163.978 20.1875C163.738 20.8229 163.457 21.3594 163.134 21.7969C162.821 22.2344 162.535 22.5573 162.274 22.7656C163.431 24.0469 164.009 25.5521 164.009 27.2812L164.04 33.8438C164.04 33.9479 163.988 34 163.884 34H160.259C160.175 34 160.134 33.9688 160.134 33.9062V27.2812C160.134 26.5104 159.863 25.8438 159.321 25.2812C158.78 24.7188 158.113 24.4375 157.321 24.4375H155.212L155.181 33.8438C155.181 33.9479 155.139 34 155.056 34ZM157.962 15.5625H155.212V20.5938H157.962C158.618 20.5938 159.201 20.349 159.712 19.8594C160.233 19.3698 160.493 18.7708 160.493 18.0625C160.493 17.3854 160.243 16.8021 159.743 16.3125C159.243 15.8125 158.649 15.5625 157.962 15.5625ZM172.689 33.8438L176.658 11.8594C176.678 11.776 176.73 11.7344 176.814 11.7344H181.454C181.538 11.7344 181.59 11.776 181.611 11.8594L185.423 33.8438C185.434 33.9479 185.392 34 185.298 34H181.751C181.647 34 181.59 33.9479 181.579 33.8438L181.236 31.5H176.876L176.533 33.8438C176.522 33.9479 176.47 34 176.376 34H172.814C172.73 34 172.689 33.9479 172.689 33.8438ZM178.954 19.0938L177.517 28.0781H180.595L179.283 19.0938L179.095 17.9062L178.954 19.0938ZM205.572 34H195.228C195.145 34 195.103 33.9479 195.103 33.8438L195.134 11.8906C195.134 11.7865 195.186 11.7344 195.291 11.7344H198.853C198.957 11.7344 199.009 11.7865 199.009 11.8906L198.978 30.0625H205.572C205.676 30.0625 205.728 30.1146 205.728 30.2188V33.8438C205.728 33.9479 205.676 34 205.572 34ZM91.1562 65.9688L85.4219 66C85.3177 66 85.2656 65.9479 85.2656 65.8438L85.3281 43.8594C85.3281 43.776 85.3698 43.7344 85.4531 43.7344L91.4375 43.7031C92.625 43.6719 93.6979 43.9427 94.6562 44.5156C95.625 45.0885 96.3958 45.8646 96.9688 46.8438C97.5521 47.8125 97.8438 48.8854 97.8438 50.0625V59.25C97.8438 60.4792 97.5469 61.6042 96.9531 62.625C96.349 63.6354 95.5469 64.4427 94.5469 65.0469C93.5469 65.6406 92.4167 65.9479 91.1562 65.9688ZM91.4375 47.5312L89.2031 47.5625L89.1719 62.0625H91.1562C91.9479 62.0625 92.6146 61.7865 93.1562 61.2344C93.6979 60.6823 93.9688 60.0208 93.9688 59.25V50.0312C93.9688 49.3542 93.7188 48.7656 93.2188 48.2656C92.7188 47.7552 92.125 47.5104 91.4375 47.5312ZM114.711 66H111.039C110.966 66 110.93 65.9583 110.93 65.875L110.961 56.7812L106.68 43.8594C106.659 43.776 106.69 43.7344 106.774 43.7344H110.336C110.44 43.7344 110.503 43.776 110.524 43.8594L112.883 52.4688L115.289 43.8594C115.31 43.776 115.362 43.7344 115.446 43.7344H119.039C119.123 43.7344 119.154 43.776 119.133 43.8594L114.805 56.6562L114.836 65.875C114.836 65.9583 114.795 66 114.711 66ZM132.048 66H128.844C128.678 66 128.594 65.9271 128.594 65.7812L128.563 43.9844C128.563 43.8177 128.646 43.7344 128.813 43.7344H131.704L137.11 56.3438L136.954 43.9844C136.954 43.8177 137.048 43.7344 137.235 43.7344H140.407C140.532 43.7344 140.594 43.8177 140.594 43.9844L140.626 65.8125C140.626 65.9375 140.574 66 140.469 66H137.657L132.11 54.2188L132.344 65.75C132.344 65.9167 132.245 66 132.048 66ZM150.009 65.8438L153.978 43.8594C153.998 43.776 154.05 43.7344 154.134 43.7344H158.774C158.858 43.7344 158.91 43.776 158.931 43.8594L162.743 65.8438C162.754 65.9479 162.712 66 162.618 66H159.071C158.967 66 158.91 65.9479 158.899 65.8438L158.556 63.5H154.196L153.853 65.8438C153.842 65.9479 153.79 66 153.696 66H150.134C150.05 66 150.009 65.9479 150.009 65.8438ZM156.274 51.0938L154.837 60.0781H157.915L156.603 51.0938L156.415 49.9062L156.274 51.0938ZM176.173 66H172.548C172.465 66 172.423 65.9479 172.423 65.8438L172.486 43.8594C172.486 43.776 172.527 43.7344 172.611 43.7344H176.517C176.6 43.7344 176.673 43.776 176.736 43.8594L179.658 48.0781L182.564 43.8594C182.626 43.776 182.704 43.7344 182.798 43.7344H186.72C186.814 43.7344 186.861 43.776 186.861 43.8594L186.923 65.8438C186.923 65.9479 186.881 66 186.798 66H183.173C183.09 66 183.048 65.9479 183.048 65.8438L183.017 49.5156L179.658 54.3906L176.329 49.5156L176.298 65.8438C176.298 65.9479 176.256 66 176.173 66ZM201.072 66H197.447C197.343 66 197.291 65.9479 197.291 65.8438L197.322 43.8594C197.322 43.776 197.364 43.7344 197.447 43.7344H201.041C201.124 43.7344 201.166 43.776 201.166 43.8594L201.197 65.8438C201.197 65.9479 201.155 66 201.072 66ZM217.58 66.3125C216.424 66.3125 215.366 66.0208 214.408 65.4375C213.46 64.8542 212.705 64.0729 212.143 63.0938C211.59 62.1042 211.314 61.0052 211.314 59.7969L211.346 49.8125C211.346 48.625 211.616 47.5521 212.158 46.5938C212.7 45.625 213.445 44.849 214.393 44.2656C215.351 43.6719 216.413 43.375 217.58 43.375C218.768 43.375 219.825 43.6615 220.752 44.2344C221.689 44.8073 222.434 45.5833 222.986 46.5625C223.549 47.5312 223.83 48.6146 223.83 49.8125V51.2812C223.83 51.3646 223.788 51.4062 223.705 51.4062H220.111C220.028 51.4062 219.986 51.3646 219.986 51.2812V49.8125C219.986 49.1042 219.757 48.4948 219.299 47.9844C218.84 47.474 218.268 47.2188 217.58 47.2188C216.82 47.2188 216.236 47.4792 215.83 48C215.424 48.5208 215.221 49.125 215.221 49.8125V59.7969C215.221 60.5781 215.45 61.2188 215.908 61.7188C216.366 62.2083 216.924 62.4531 217.58 62.4531C218.268 62.4531 218.84 62.1823 219.299 61.6406C219.757 61.0885 219.986 60.474 219.986 59.7969V58.3125C219.986 58.2292 220.028 58.1875 220.111 58.1875H223.736C223.82 58.1875 223.861 58.2292 223.861 58.3125V59.7969C223.861 60.9948 223.58 62.0885 223.018 63.0781C222.445 64.0573 221.689 64.8438 220.752 65.4375C219.814 66.0208 218.757 66.3125 217.58 66.3125ZM239.307 66.3125C238.171 66.3125 237.125 66.0208 236.166 65.4375C235.218 64.8542 234.458 64.0781 233.885 63.1094C233.322 62.1302 233.041 61.0573 233.041 59.8906V58.4219C233.041 58.3073 233.093 58.25 233.197 58.25H236.791C236.875 58.25 236.916 58.3073 236.916 58.4219V59.8906C236.916 60.5885 237.151 61.1927 237.619 61.7031C238.088 62.2031 238.651 62.4531 239.307 62.4531C239.974 62.4531 240.541 62.1979 241.01 61.6875C241.479 61.1667 241.713 60.5677 241.713 59.8906C241.713 59.1094 241.203 58.4271 240.182 57.8438C240.015 57.7396 239.796 57.6146 239.526 57.4688C239.265 57.3125 238.953 57.1354 238.588 56.9375C238.224 56.7396 237.869 56.5469 237.526 56.3594C237.182 56.1615 236.849 55.974 236.526 55.7969C235.359 55.1094 234.489 54.25 233.916 53.2188C233.354 52.1771 233.072 51.0104 233.072 49.7188C233.072 48.5312 233.364 47.4583 233.947 46.5C234.531 45.5521 235.291 44.8021 236.229 44.25C237.177 43.6875 238.203 43.4062 239.307 43.4062C240.442 43.4062 241.484 43.6875 242.432 44.25C243.38 44.8229 244.135 45.5833 244.697 46.5312C245.27 47.4792 245.557 48.5417 245.557 49.7188V52.3438C245.557 52.4271 245.515 52.4688 245.432 52.4688H241.838C241.755 52.4688 241.713 52.4271 241.713 52.3438L241.682 49.7188C241.682 48.9688 241.447 48.3594 240.979 47.8906C240.51 47.4219 239.953 47.1875 239.307 47.1875C238.651 47.1875 238.088 47.4375 237.619 47.9375C237.151 48.4375 236.916 49.0312 236.916 49.7188C236.916 50.4167 237.062 51 237.354 51.4688C237.656 51.9375 238.203 52.3854 238.994 52.8125C239.078 52.8542 239.27 52.9583 239.572 53.125C239.875 53.2917 240.208 53.4792 240.572 53.6875C240.947 53.8854 241.286 54.0677 241.588 54.2344C241.89 54.3906 242.072 54.4844 242.135 54.5156C243.197 55.1094 244.036 55.8385 244.651 56.7031C245.276 57.5677 245.588 58.6302 245.588 59.8906C245.588 61.1094 245.307 62.2031 244.744 63.1719C244.171 64.1406 243.411 64.9062 242.463 65.4688C241.515 66.0312 240.463 66.3125 239.307 66.3125Z" fill="white"/>
</g>
<path d="M22.0484 39.705C21.8376 51.7844 31.4589 61.7476 43.5383 61.9585C43.8503 61.9639 44.1608 61.9628 44.4698 61.9552C33.8189 61.3028 25.4738 52.3653 25.6619 41.5913C25.8552 30.5185 34.9881 21.6989 46.0609 21.8922C56.8349 22.0803 46.0252 22.823 46.0252 22.823C46.0435 22.5145 46.0554 22.2042 46.0609 21.8922C46.0609 21.8922 56.3812 18.426 44.3019 18.2151C32.2225 18.0043 22.2593 27.6256 22.0484 39.705Z" fill="url(#paint0_linear_1_5)"/>
<path d="M67.0054 39.7078C67.0054 27.6266 57.2117 17.8328 45.1304 17.8328C44.8184 17.8328 44.5079 17.8394 44.1991 17.8523C54.8598 18.3188 63.3596 27.1092 63.3596 37.8849C63.3596 48.9594 54.382 57.937 43.3075 57.937C32.5318 57.937 43.327 57.0057 43.327 57.0057C43.3141 57.3145 43.3075 57.625 43.3075 57.937C43.3075 57.937 33.0492 61.5828 45.1304 61.5828C57.2117 61.5828 67.0054 51.7891 67.0054 39.7078Z" fill="url(#paint1_linear_1_5)"/>
<path d="M56.1511 56.1075C55.4629 54.0968 53.2471 50.1935 46.1467 47.1261C35.8348 43.3843 47.9763 31.3974 51.9215 41.3514C54.9644 48.6052 58.9556 50.7587 60.9633 51.3963C61.6342 51.1928 62.346 51.0833 63.0833 51.0833C67.1104 51.0833 70.375 54.3479 70.375 58.375C70.375 62.4021 67.1104 65.6667 63.0833 65.6667C59.0563 65.6667 55.7917 62.4021 55.7917 58.375C55.7917 57.5834 55.9178 56.8212 56.1511 56.1075Z" fill="url(#paint2_linear_1_5)"/>
<path d="M33.9167 21.9167C33.9167 22.618 33.8176 23.2963 33.6328 23.9382C34.0064 25.3107 35.2177 28.11 39.118 30.8314C40.7857 29.8022 42.7506 29.2083 44.8542 29.2083C50.8948 29.2083 55.7917 34.1052 55.7917 40.1458C55.7917 46.1864 50.8948 51.0833 44.8542 51.0833C38.8136 51.0833 33.9167 46.1864 33.9167 40.1458C33.9167 38.0718 34.494 36.1326 35.4966 34.4801C32.7197 30.4462 29.8129 29.299 28.4647 28.9743C27.877 29.127 27.2605 29.2083 26.625 29.2083C22.5979 29.2083 19.3333 25.9437 19.3333 21.9167C19.3333 17.8896 22.5979 14.625 26.625 14.625C30.6521 14.625 33.9167 17.8896 33.9167 21.9167Z" fill="url(#paint3_linear_1_5)"/>
<path d="M42.9583 30.8727C48.7715 29.6436 54.2636 34.0194 54.3641 39.9602C54.3641 39.9602 53.6042 36.5857 50.25 33.7292C46.8958 30.8727 42.9583 30.8727 42.9583 30.8727Z" fill="white"/>
<circle cx="45" cy="40" r="34" stroke="url(#paint4_linear_1_5)" stroke-opacity="0.9" stroke-width="2"/>
<g filter="url(#filter1_d_1_5)">
<path d="M214 10C213.011 10 212.044 10.2932 211.222 10.8427C210.4 11.3921 209.759 12.173 209.381 13.0866C209.002 14.0002 208.903 15.0055 209.096 15.9754C209.289 16.9454 209.765 17.8363 210.464 18.5355C211.164 19.2348 212.055 19.711 213.025 19.9039C213.994 20.0969 215 19.9978 215.913 19.6194C216.827 19.241 217.608 18.6001 218.157 17.7778C218.707 16.9556 219 15.9889 219 15C219 14.3434 218.871 13.6932 218.619 13.0866C218.368 12.48 218 11.9288 217.536 11.4645C217.071 11.0002 216.52 10.6319 215.913 10.3806C215.307 10.1293 214.657 10 214 10ZM214 19C213.209 19 212.436 18.7654 211.778 18.3259C211.12 17.8864 210.607 17.2616 210.304 16.5307C210.002 15.7998 209.923 14.9956 210.077 14.2196C210.231 13.4437 210.612 12.731 211.172 12.1716C211.731 11.6122 212.444 11.2312 213.22 11.0769C213.996 10.9225 214.8 11.0017 215.531 11.3045C216.262 11.6072 216.886 12.1199 217.326 12.7777C217.765 13.4355 218 14.2089 218 15C218 16.0609 217.579 17.0783 216.828 17.8284C216.078 18.5786 215.061 19 214 19ZM214.25 12.5H212.75C212.617 12.5 212.49 12.5527 212.396 12.6464C212.303 12.7402 212.25 12.8674 212.25 13V17C212.25 17.1326 212.303 17.2598 212.396 17.3536C212.49 17.4473 212.617 17.5 212.75 17.5C212.883 17.5 213.01 17.4473 213.104 17.3536C213.197 17.2598 213.25 17.1326 213.25 17V16H214.25C214.383 16 214.51 16.0527 214.604 16.1464C214.697 16.2402 214.75 16.3674 214.75 16.5V17C214.75 17.1326 214.803 17.2598 214.896 17.3536C214.99 17.4473 215.117 17.5 215.25 17.5C215.383 17.5 215.51 17.4473 215.604 17.3536C215.697 17.2598 215.75 17.1326 215.75 17V16.5C215.748 16.13 215.609 15.7738 215.36 15.5C215.609 15.2262 215.748 14.87 215.75 14.5V14C215.75 13.6022 215.592 13.2206 215.311 12.9393C215.029 12.658 214.648 12.5 214.25 12.5ZM214.75 14.5C214.75 14.6326 214.697 14.7598 214.604 14.8536C214.51 14.9473 214.383 15 214.25 15H213.25V13.5H214.25C214.383 13.5 214.51 13.5527 214.604 13.6464C214.697 13.7402 214.75 13.8674 214.75 14V14.5Z" fill="white"/>
</g>
</g>
<defs>
<filter id="filter0_d_1_5" x="81.9656" y="8.43437" width="168.922" height="63.1781" filterUnits="userSpaceOnUse" color-interpolation-filters="sRGB">
<feFlood flood-opacity="0" result="BackgroundImageFix"/>
<feColorMatrix in="SourceAlpha" type="matrix" values="0 0 0 0 0 0 0 0 0 0 0 0 0 0 0 0 0 0 127 0" result="hardAlpha"/>
<feOffset dx="1" dy="1"/>
<feGaussianBlur stdDeviation="2.15"/>
<feComposite in2="hardAlpha" operator="out"/>
<feColorMatrix type="matrix" values="0 0 0 0 1 0 0 0 0 0.563333 0 0 0 0 0.949056 0 0 0 1 0"/>
<feBlend mode="normal" in2="BackgroundImageFix" result="effect1_dropShadow_1_5"/>
<feBlend mode="normal" in="SourceGraphic" in2="effect1_dropShadow_1_5" result="shape"/>
</filter>
<filter id="filter1_d_1_5" x="206" y="7" width="18" height="18" filterUnits="userSpaceOnUse" color-interpolation-filters="sRGB">
<feFlood flood-opacity="0" result="BackgroundImageFix"/>
<feColorMatrix in="SourceAlpha" type="matrix" values="0 0 0 0 0 0 0 0 0 0 0 0 0 0 0 0 0 0 127 0" result="hardAlpha"/>
<feOffset dx="1" dy="1"/>
<feGaussianBlur stdDeviation="2"/>
<feComposite in2="hardAlpha" operator="out"/>
<feColorMatrix type="matrix" values="0 0 0 0 1 0 0 0 0 0.563333 0 0 0 0 0.949056 0 0 0 1 0"/>
<feBlend mode="normal" in2="BackgroundImageFix" result="effect1_dropShadow_1_5"/>
<feBlend mode="normal" in="SourceGraphic" in2="effect1_dropShadow_1_5" result="shape"/>
</filter>
<linearGradient id="paint0_linear_1_5" x1="61.5692" y1="21.667" x2="26.4856" y2="56.235" gradientUnits="userSpaceOnUse">
<stop offset="0.684" stop-opacity="0"/>
<stop offset="0.879" stop-color="#38AEDC" stop-opacity="0.9"/>
<stop offset="1" stop-color="#80CBEA"/>
</linearGradient>
<linearGradient id="paint1_linear_1_5" x1="27.8054" y1="58.4328" x2="62.2805" y2="23.2578" gradientUnits="userSpaceOnUse">
<stop offset="0.684" stop-opacity="0"/>
<stop offset="0.879" stop-color="#38AEDC" stop-opacity="0.9"/>
<stop offset="1" stop-color="#80CBEA"/>
</linearGradient>
<linearGradient id="paint2_linear_1_5" x1="44.1282" y1="40.4184" x2="66.7856" y2="62.707" gradientUnits="userSpaceOnUse">
<stop offset="0.249" stop-opacity="0.5"/>
<stop offset="0.824" stop-color="#38AEDC" stop-opacity="0.9"/>
<stop offset="0.994" stop-color="#85CFEC"/>
</linearGradient>
<linearGradient id="paint3_linear_1_5" x1="21.9583" y1="18.4167" x2="51.2708" y2="47.1458" gradientUnits="userSpaceOnUse">
<stop stop-opacity="0"/>
<stop offset="0.444" stop-color="#38AEDC" stop-opacity="0.9"/>
<stop offset="1" stop-color="#80CBEA"/>
</linearGradient>
<linearGradient id="paint4_linear_1_5" x1="68.1875" y1="65.8125" x2="17.875" y2="15.9375" gradientUnits="userSpaceOnUse">
<stop stop-opacity="0"/>
<stop offset="0.242" stop-color="#329AC3"/>
<stop offset="0.484" stop-color="#2B86A9"/>
<stop offset="0.964" stop-opacity="0"/>
</linearGradient>
<clipPath id="clip0_1_5">
<rect width="250" height="80" fill="white"/>
</clipPath>
</defs>
</svg>
